<?xml version="1.0" encoding="UTF-8" standalone="no"?>
<svg
   version="1.0"
   width="80pt"
   height="80pt"
   viewBox="0 0 1024.000000 1024.000000"
   preserveAspectRatio="xMidYMid meet"
   id="svg26"
   sodipodi:docname="67867281f2b59c201787b168711e7fe9.svg"
   xmlns:inkscape="http://www.inkscape.org/namespaces/inkscape"
   xmlns:sodipodi="http://sodipodi.sourceforge.net/DTD/sodipodi-0.dtd"
   xmlns="http://www.w3.org/2000/svg"
   xmlns:svg="http://www.w3.org/2000/svg">
  <defs
     id="defs30" />
  <sodipodi:namedview
     id="namedview28"
     pagecolor="#ffffff"
     bordercolor="#666666"
     borderopacity="1.0"
     inkscape:pageshadow="2"
     inkscape:pageopacity="0.0"
     inkscape:pagecheckerboard="0"
     inkscape:document-units="pt" />
  <g
     transform="translate(0.000000,1024.000000) scale(0.100000,-0.100000)"
     fill="#000000"
     stroke="none"
     id="g24">
    <path
       d="M5029 8137 c-103 -29 -185 -99 -238 -206 -26 -51 -39 -63 -94 -95 -82 -45 -139 -103 -174 -174 -25 -50 -28 -68 -28 -152 0 -83 3 -102 27 -150 34 -68 98 -132 180 -180 52 -29 68 -46 92 -90 44 -82 129 -162 201 -190 92 -36 183 -34 267 8 75 37 141 102 188 186 27 48 42 62 92 87 183 93 262 309 177 487 -30 62 -112 141 -178 172 -46 21 -57 32 -83 83 -85 170 -266 260 -429 214z m178 -158 c53 -26 84 -62 129 -150 31 -64 39 -71 97 -100 94 -47 127 -76 154 -136 54 -117 -4 -234 -145 -294 -62 -27 -79 -43 -113 -112 -61 -120 -142 -176 -234 -163 -69 11 -120 56 -175 156 -45 83 -48 86 -119 121 -122 61 -161 112 -161 209 0 94 43 151 158 209 68 34 80 47 120 127 70 138 176 188 289 133z"
       id="path2" />
    <path
       d="M5090 7847 c-16 -8 -39 -41 -62 -87 -44 -90 -107 -151 -173 -170 -50 -14 -75 -40 -75 -80 0 -38 26 -68 68 -80 80 -21 141 -81 184 -180 25 -55 53 -79 94 -80 37 0 53 17 87 90 36 76 97 136 172 170 64 29 75 42 75 89 0 34 -20 52 -87 81 -63 27 -126 91 -159 164 -37 80 -77 107 -124 83z m120 -337 c0 -3 -20 -26 -45 -50 l-45 -44 -43 47 -44 47 46 48 46 48 42 -46 c23 -25 42 -47 43 -50z"
       id="path4" />
    <path
       d="M4030 6914 c-277 -21 -519 -126 -722 -313 l-67 -61 -113 11 c-151 16 -554 -2 -678 -30 -399 -90 -721 -372 -867 -760 -108 -286 -55 -656 149 -1054 29 -56 60 -109 70 -119 40 -40 118 -5 118 53 0 14 -25 75 -55 137 -146 294 -211 562 -186 755 51 385 372 732 766 832 74 19 145 28 275 35 220 12 371 12 389 1 10 -7 5 -22 -28 -70 l-42 -61 -138 0 c-329 0 -514 -44 -694 -164 -141 -94 -243 -209 -318 -358 -101 -202 -105 -367 -13 -646 39 -121 130 -314 169 -360 35 -42 84 -44 114 -6 12 15 21 32 21 39 0 7 -29 72 -64 146 -153 321 -190 534 -121 702 59 145 178 287 310 372 136 86 244 113 489 122 172 6 179 5 172 -12 -4 -11 -17 -55 -29 -99 -29 -110 -29 -299 2 -440 40 -189 152 -479 198 -513 28 -22 70 -16 92 13 29 37 27 54 -18 154 -133 294 -176 567 -123 768 75 280 292 537 572 677 186 93 369 115 730 85 108 -9 311 -43 332 -56 12 -8 -45 -114 -62 -114 -8 1 -44 8 -80 16 -46 11 -142 17 -331 21 -248 5 -271 4 -350 -16 -91 -23 -222 -81 -296 -133 -133 -91 -271 -255 -339 -404 -83 -178 -83 -340 -2 -592 40 -126 125 -324 145 -339 43 -33 123 -1 123 49 0 12 -29 94 -64 182 -86 214 -109 305 -110 431 0 112 21 184 85 291 68 114 218 253 336 313 56 28 62 27 31 -6 -80 -88 -167 -263 -210 -423 -28 -109 -36 -344 -14 -470 25 -144 76 -326 97 -349 39 -41 129 -15 129 37 0 9 -18 87 -40 173 -78 310 -72 491 24 718 69 163 189 310 293 359 55 26 66 27 208 27 126 -1 281 -16 307 -31 4 -3 -4 -35 -16 -72 -57 -168 -70 -247 -71 -432 0 -110 5 -201 14 -245 18 -90 79 -296 94 -313 34 -41 104 -33 126 14 9 20 5 45 -24 141 -55 179 -68 275 -62 438 7 193 41 313 172 611 36 81 65 157 65 168 0 57 -63 87 -269 126 -140 27 -489 52 -601 44z"
       id="path6" />
    <path
       d="M5815 6900 c-103 -10 -185 -25 -310 -57 -140 -36 -165 -51 -165 -99 0 -8 34 -94 75 -190 42 -96 87 -209 101 -251 89 -266 88 -484 -6 -788 -35 -114 -31 -144 22 -166 55 -22 78 0 116 115 55 164 73 257 79 421 6 175 -7 269 -60 438 -19 59 -31 109 -27 112 5 3 53 12 107 20 131 20 285 19 353 -1 129 -38 232 -139 316 -309 64 -132 93 -236 101 -370 7 -122 -6 -228 -52 -415 -19 -77 -35 -152 -35 -166 0 -54 74 -84 119 -46 43 36 109 326 118 518 12 249 -51 468 -191 673 l-58 83 69 -36 c220 -115 403 -380 403 -581 0 -106 -50 -286 -135 -490 -50 -118 -53 -143 -27 -173 28 -34 64 -37 99 -8 57 48 183 400 205 574 46 356 -226 738 -627 879 l-80 28 -290 0 c-256 0 -301 -3 -382 -21 l-91 -21 -25 59 c-14 32 -22 60 -18 62 4 3 53 14 109 26 230 46 623 53 774 12 403 -109 748 -502 775 -883 11 -156 -40 -374 -143 -614 -24 -57 -44 -115 -44 -129 0 -48 74 -83 113 -53 42 31 161 345 199 521 37 178 26 393 -28 530 -7 19 -2 19 172 13 221 -8 291 -23 420 -86 202 -100 368 -302 409 -498 28 -132 -28 -354 -152 -613 -64 -132 -64 -135 -49 -166 20 -42 67 -54 105 -27 57 42 198 375 236 561 22 107 20 235 -6 318 -47 153 -131 286 -256 405 -88 84 -179 143 -293 188 -123 48 -213 62 -450 68 l-216 6 -37 63 c-20 34 -37 65 -37 68 0 9 239 7 416 -4 321 -19 523 -103 730 -302 129 -124 224 -276 277 -443 28 -92 30 -279 4 -405 -29 -138 -95 -323 -163 -457 -35 -70 -64 -139 -64 -155 0 -61 78 -91 121 -45 33 35 144 271 189 401 101 298 114 523 40 740 -69 205 -180 370 -349 519 -146 128 -336 224 -531 268 -153 34 -670 50 -766 23 -15 -4 -38 11 -94 61 -167 150 -376 255 -577 290 -91 16 -388 19 -538 5z"
       id="path8" />
    <path
       d="M5071 6744 c-27 -19 -56 -80 -152 -319 -102 -256 -114 -308 -113 -495 0 -170 15 -260 73 -447 33 -105 53 -133 97 -133 12 0 33 9 48 21 30 24 33 56 11 120 -31 88 -66 243 -77 345 -16 140 -1 256 50 401 64 177 106 283 113 283 10 0 116 -292 139 -385 39 -154 25 -366 -40 -584 -17 -55 -30 -114 -30 -131 0 -64 75 -93 119 -46 25 27 71 170 103 321 27 129 29 326 4 435 -41 182 -189 558 -237 603 -34 31 -73 35 -108 11z"
       id="path10" />
    <path
       d="M4905 5191 l-520 -6 -45 -24 c-107 -57 -218 -217 -256 -369 -61 -244 -14 -542 111 -717 50 -70 107 -127 150 -150 29 -16 27 -16 -65 -13 -86 3 -102 7 -172 42 -133 66 -262 203 -327 348 -39 88 -42 104 -21 123 10 9 31 44 46 78 25 53 29 74 29 147 -1 77 -4 91 -34 148 -63 116 -162 176 -291 176 -178 0 -316 -126 -328 -300 -8 -128 39 -229 142 -304 l48 -35 -6 -80 c-13 -163 -63 -249 -179 -304 -195 -93 -405 -50 -601 122 l-49 43 11 47 c39 154 -24 309 -154 379 -174 93 -381 27 -460 -147 -50 -109 -41 -223 27 -324 67 -100 155 -145 283 -144 58 0 79 6 136 35 l69 36 23 -25 c42 -45 154 -122 229 -158 327 -155 714 -16 793 286 8 31 17 90 21 131 6 66 10 77 29 82 47 13 62 7 74 -29 23 -63 86 -165 150 -246 231 -288 586 -369 848 -194 l67 45 166 0 167 0 36 -69 35 -69 -37 -11 c-163 -49 -225 -258 -114 -381 89 -98 222 -107 332 -23 38 29 82 113 82 157 0 25 2 27 23 20 12 -5 221 -10 465 -11 l442 -4 0 -22 c0 -13 15 -47 33 -77 73 -123 219 -154 343 -74 56 36 89 91 110 181 16 67 17 78 3 101 -23 41 -55 52 -155 52 l-92 0 24 58 c30 72 32 175 5 285 l-19 78 29 69 c16 37 35 92 43 121 7 30 16 53 20 52 3 -1 26 -5 51 -9 l45 -6 0 -52 c1 -139 52 -266 144 -355 69 -66 110 -89 210 -120 222 -69 456 -13 644 153 l74 65 39 -25 c212 -134 492 13 507 266 6 102 -22 175 -92 246 -125 125 -326 131 -459 15 -83 -73 -125 -223 -93 -326 l16 -50 -37 -34 c-124 -111 -194 -152 -300 -177 -167 -39 -370 27 -449 146 -32 49 -54 134 -54 216 l0 61 46 29 c90 57 150 172 148 284 -4 206 -180 352 -385 319 -34 -5 -79 -19 -101 -30 -49 -25 -111 -87 -136 -135 l-19 -38 -40 85 c-72 153 -172 261 -293 318 l-55 26 -305 1 c-168 0 -539 -2 -825 -5z m1135 -166 c114 -58 216 -208 258 -380 25 -99 29 -133 42 -313 8 -104 20 -180 45 -277 55 -209 44 -291 -48 -370 l-41 -35 -436 0 -436 0 -50 25 c-97 48 -177 156 -218 295 -9 30 -28 161 -41 290 -28 267 -48 356 -110 487 -47 101 -86 161 -152 240 l-44 52 158 4 c87 1 353 4 591 5 l433 2 49 -25z m-1463 -12 c53 -25 126 -105 167 -182 54 -104 69 -181 64 -341 -5 -123 -8 -143 -37 -218 -41 -105 -94 -172 -162 -206 -65 -32 -109 -33 -174 -2 -83 39 -141 113 -185 236 -96 261 -34 585 134 698 40 26 58 32 103 32 31 0 71 -7 90 -17z m-1000 -204 c40 -15 73 -48 94 -94 24 -51 23 -89 0 -141 -49 -107 -190 -138 -278 -61 -124 109 -52 305 114 307 23 0 54 -5 70 -11z m3270 -26 c22 -17 46 -50 57 -77 18 -41 19 -52 8 -93 -17 -61 -45 -99 -92 -123 -86 -44 -203 -12 -244 65 -30 58 -28 132 6 183 57 86 187 108 265 45z m-4544 -367 c18 -7 47 -29 64 -49 75 -85 47 -214 -57 -267 -174 -89 -345 132 -212 274 51 54 136 71 205 42z m5780 0 c44 -18 95 -78 103 -121 15 -79 -23 -156 -96 -192 -54 -28 -109 -29 -158 -4 -97 50 -128 145 -79 241 39 79 143 113 230 76z m-3113 -201 c6 -61 13 -125 16 -142 l6 -33 -87 0 c-83 0 -87 1 -73 18 28 31 78 135 99 205 12 37 23 67 25 65 1 -2 8 -53 14 -113z m196 -639 c37 -31 39 -90 5 -117 -33 -27 -86 -25 -116 6 -73 72 33 179 111 111z m1444 -75 c0 -4 -12 -20 -26 -35 -33 -32 -81 -34 -118 -5 -48 38 -35 49 59 49 47 0 85 -4 85 -9z"
       id="path12" />
    <path
       d="M4451 4823 c-42 -21 -87 -89 -102 -158 -6 -29 -10 -93 -7 -146 3 -76 10 -106 33 -157 58 -129 143 -156 226 -73 51 50 74 128 73 246 -1 137 -53 248 -135 291 -35 18 -46 17 -88 -3z"
       id="path14" />
    <path
       d="M3630 3739 c-51 -21 -102 -64 -128 -108 -22 -38 -27 -58 -27 -117 0 -61 4 -77 30 -120 43 -68 108 -107 190 -112 80 -5 127 10 181 60 57 52 78 108 72 192 -5 77 -37 132 -106 181 -37 25 -54 30 -115 32 -40 2 -83 -2 -97 -8z m141 -168 c17 -18 29 -40 29 -56 0 -32 -49 -85 -80 -85 -29 0 -76 26 -84 45 -36 94 65 165 135 96z"
       id="path16" />
    <path
       d="M2410 3701 c-148 -48 -220 -202 -156 -336 43 -92 112 -135 214 -135 112 0 204 71 233 182 36 134 -71 282 -212 293 -30 3 -65 1 -79 -4z m108 -167 c69 -48 28 -154 -58 -154 -33 0 -80 53 -80 90 0 65 82 103 138 64z"
       id="path18" />
    <path
       d="M7710 3701 c-132 -43 -201 -163 -169 -293 9 -41 23 -63 63 -103 77 -76 174 -96 266 -54 56 25 86 53 112 102 79 155 -24 340 -196 353 -28 2 -62 0 -76 -5z m95 -155 c62 -26 74 -89 26 -137 -33 -32 -58 -36 -100 -14 -32 16 -41 33 -41 79 0 38 31 72 78 85 1 1 18 -5 37 -13z"
       id="path20" />
    <path
       d="M2568 3180 c-84 -25 -144 -98 -155 -187 -7 -60 24 -141 68 -178 l29 -24 0 -146 0 -146 -36 -36 c-59 -58 -76 -122 -57 -214 9 -46 96 -134 148 -148 28 -8 773 -11 2566 -11 l2525 0 55 28 c76 38 112 92 117 176 5 72 -15 123 -68 172 l-30 29 0 148 0 148 29 25 c67 56 90 167 52 250 -22 49 -78 97 -130 113 -46 13 -5068 15 -5113 1z m5097 -165 c30 -29 31 -45 4 -79 l-20 -26 -2529 0 -2529 0 -15 22 c-22 31 -20 64 4 88 20 20 33 20 2540 20 l2521 0 24 -25z m-85 -375 l0 -120 -2460 0 -2460 0 0 120 0 120 2460 0 2460 0 0 -120z m77 -286 c32 -20 32 -77 1 -98 -20 -14 -277 -16 -2538 -16 -2261 0 -2518 2 -2538 16 -28 19 -29 67 -3 93 19 19 66 19 2537 20 2217 0 2521 -1 2541 -15z"
       id="path22" />
  </g>
</svg>
